<?xml version="1.0" standalone="no"?>
<!DOCTYPE svg PUBLIC "-//W3C//DTD SVG 20010904//EN"
 "http://www.w3.org/TR/2001/REC-SVG-20010904/DTD/svg10.dtd">
<svg version="1.0" xmlns="http://www.w3.org/2000/svg"
 width="85.000000pt" height="85.000000pt" viewBox="0 0 85.000000 85.000000"
 preserveAspectRatio="xMidYMid meet">
<metadata>
Created by potrace 1.11, written by Peter Selinger 2001-2013
</metadata>
<g transform="translate(0.000000,85.000000) scale(0.100000,-0.100000)"
fill="#000000" stroke="none">
<path d="M340 836 c-111 -23 -223 -101 -277 -193 -160 -274 25 -624 339 -638
132 -5 243 39 329 133 240 262 78 677 -276 705 -33 2 -85 -1 -115 -7z m232
-89 c71 -32 143 -104 177 -177 22 -46 26 -69 26 -145 0 -79 -3 -97 -29 -149
-90 -184 -298 -257 -481 -171 -55 27 -141 114 -167 172 -33 70 -32 228 0 294
46 94 125 162 225 195 66 22 181 13 249 -19z"/>
<path d="M402 759 c-25 -10 -212 -118 -212 -124 0 -5 260 -155 268 -155 6 0 9
244 3 271 -2 12 -36 16 -59 8z"/>
<path d="M508 560 l-3 -160 -180 104 c-114 66 -184 101 -190 95 -14 -14 -15
-312 -1 -340 6 -13 55 -49 108 -80 l98 -58 2 163 3 163 180 -103 c115 -67 183
-100 189 -94 11 11 15 309 5 338 -6 16 -184 132 -203 132 -3 0 -7 -72 -8 -160z"/>
<path d="M382 235 c0 -182 4 -184 166 -90 53 31 101 60 105 64 6 6 -250 161
-266 161 -2 0 -4 -61 -5 -135z"/>
</g>
</svg>
