<?xml version="1.0" standalone="no"?>
<!DOCTYPE svg PUBLIC "-//W3C//DTD SVG 20010904//EN"
 "http://www.w3.org/TR/2001/REC-SVG-20010904/DTD/svg10.dtd">
<svg version="1.0" xmlns="http://www.w3.org/2000/svg"
 width="468.000000pt" height="468.000000pt" viewBox="0 0 468.000000 468.000000"
 preserveAspectRatio="xMidYMid meet">
<metadata>
Created by potrace 1.11, written by Peter Selinger 2001-2013
</metadata>
<g transform="translate(0.000000,468.000000) scale(0.100000,-0.100000)"
fill="#000000" stroke="none">
<path d="M2338 4676 c-1 -2 -63 -6 -136 -10 -74 -3 -137 -8 -140 -10 -4 -2
-36 -7 -72 -11 -36 -4 -67 -8 -70 -10 -3 -2 -25 -6 -50 -10 -25 -4 -47 -8 -51
-10 -3 -2 -21 -7 -40 -10 -86 -15 -352 -114 -482 -179 -113 -57 -332 -189
-357 -216 -3 -3 -39 -32 -80 -64 -152 -121 -338 -325 -457 -501 -80 -119 -102
-157 -161 -277 -109 -224 -180 -452 -218 -702 -25 -162 -24 -529 1 -668 3 -16
7 -40 10 -55 3 -16 8 -44 11 -63 18 -117 97 -361 162 -505 298 -650 863 -1124
1547 -1300 50 -13 106 -26 125 -29 19 -3 62 -10 95 -16 178 -30 546 -34 690
-6 11 2 40 7 65 10 230 32 548 147 775 280 63 36 207 132 245 162 230 184 405
373 546 589 125 192 241 455 298 675 24 92 30 116 42 189 3 18 7 43 9 54 21
105 28 497 12 632 -47 393 -203 783 -446 1115 -72 98 -95 124 -226 255 -116
117 -150 147 -230 207 -28 21 -56 42 -62 48 -7 6 -54 37 -106 69 -272 172
-594 292 -902 336 -22 4 -51 8 -65 10 -14 3 -77 7 -140 11 -63 3 -120 7 -127
9 -6 2 -13 2 -15 1z m232 -360 c41 -6 74 -11 140 -22 62 -11 222 -55 290 -80
557 -200 997 -634 1204 -1186 32 -86 83 -268 91 -323 1 -11 6 -42 10 -70 3
-27 9 -61 11 -75 3 -14 7 -95 8 -180 5 -257 -24 -449 -100 -678 -222 -664
-792 -1170 -1484 -1316 -293 -61 -611 -53 -906 24 -583 153 -1069 565 -1316
1115 -69 156 -134 378 -152 528 -3 26 -9 68 -12 95 -4 26 -7 110 -7 187 0 191
10 269 58 489 12 54 41 142 77 233 219 564 677 993 1258 1179 99 32 286 71
380 80 41 3 76 8 78 9 5 5 326 -3 372 -9z"/>
<path d="M2230 4201 c-81 -26 -159 -68 -409 -221 -197 -120 -607 -360 -615
-360 -2 0 -42 -22 -90 -50 -48 -27 -92 -50 -99 -50 -12 0 55 -45 122 -81 20
-11 43 -24 51 -30 15 -9 214 -124 280 -161 19 -11 64 -37 100 -58 36 -21 81
-47 100 -58 19 -10 223 -128 452 -261 230 -132 421 -241 426 -241 13 0 11
1518 -2 1529 -6 4 -38 18 -71 31 -80 29 -174 34 -245 11z"/>
<path d="M2819 3992 c0 -4 -1 -413 -1 -909 0 -497 -2 -903 -5 -903 -6 0 -67
34 -318 179 -121 71 -294 171 -385 223 -91 53 -181 105 -200 117 -19 11 -41
24 -49 27 -7 4 -106 61 -220 127 -113 66 -220 127 -237 137 -16 10 -164 95
-328 189 -164 95 -299 171 -301 169 -34 -42 -69 -102 -82 -142 -14 -45 -17
-138 -19 -826 -2 -452 1 -803 6 -842 20 -134 73 -209 222 -309 48 -33 89 -59
92 -59 2 0 63 -34 135 -75 72 -41 133 -75 135 -75 8 0 494 -286 572 -337 l21
-14 -1 911 c0 500 3 910 7 910 4 0 54 -26 110 -59 56 -32 118 -68 137 -78 48
-28 210 -121 360 -208 69 -40 141 -82 160 -93 19 -11 102 -58 183 -106 82 -47
167 -97 190 -109 23 -13 98 -57 167 -97 69 -40 141 -82 160 -93 47 -26 420
-241 462 -266 18 -11 49 -29 69 -40 l37 -19 30 42 c61 85 79 181 75 421 -2
171 -3 780 -1 1125 1 271 -20 351 -121 450 -49 47 -183 135 -311 204 -19 10
-61 34 -93 52 -32 19 -60 34 -62 34 -2 0 -52 28 -112 63 -59 35 -115 66 -123
70 -8 4 -28 16 -45 26 -172 106 -315 189 -316 183z"/>
<path d="M2119 2048 c-1 -2 -2 -347 -3 -766 l-1 -764 40 -18 c138 -61 229 -60
370 5 68 31 128 66 405 235 133 81 342 203 430 252 25 14 63 35 85 48 22 12
65 36 95 52 30 17 70 40 88 51 l33 19 -23 13 c-43 23 -483 278 -520 301 -21
13 -40 24 -42 24 -3 0 -69 38 -148 84 -137 80 -495 287 -568 328 -79 45 -177
102 -207 120 -18 11 -34 18 -34 16z"/>
</g>
</svg>
